<mxfile host="app.diagrams.net" modified="2023-12-08T22:21:18.824Z" agent="Mozilla/5.0 (X11; Linux x86_64) AppleWebKit/537.36 (KHTML, like Gecko) Chrome/119.0.0.0 Safari/537.36" version="22.1.7" etag="jXJuEV1liNna6EqwvrTI" type="github">
  <diagram name="Page-1" id="ldo-d37yE-MHj6wr7EXf">
    <mxGraphModel>
      <root>
        <mxCell id="0" />
        <mxCell id="1" parent="0" />
      </root>
    </mxGraphModel>
  </diagram>
</mxfile>
